<svg width="164" height="37" viewBox="0 0 164 37" fill="none" xmlns="http://www.w3.org/2000/svg">
<rect width="39" height="37" rx="8" fill="url(#paint0_linear_92_4602)"/>
<rect width="39" height="37" rx="8" fill="url(#paint1_linear_92_4602)"/>
<path d="M27 12C29.2091 12 31 13.7909 31 16V26C31 28.2091 29.2091 30 27 30H11C8.79086 30 7 28.2091 7 26V16C7 13.7909 8.79086 12 11 12H27ZM13 13.5C10.7909 13.5 9 15.2909 9 17.5V24.5C9 26.7091 10.7909 28.5 13 28.5H25C27.2091 28.5 29 26.7091 29 24.5V17.5C29 15.2909 27.2091 13.5 25 13.5H13Z" fill="white"/>
<rect x="13" y="19" width="2" height="3" fill="#D9D9D9"/>
<rect x="4" y="22" width="2" height="3" transform="rotate(-90 4 22)" fill="#D9D9D9"/>
<rect x="18.0457" y="7.97314" width="2" height="4.02694" transform="rotate(0.650798 18.0457 7.97314)" fill="#D9D9D9"/>
<rect x="16" y="9" width="2" height="4.02694" transform="rotate(-89.6036 16 9)" fill="#D9D9D9"/>
<rect x="31" y="22" width="2" height="3" transform="rotate(-90 31 22)" fill="#D9D9D9"/>
<rect x="22" y="19" width="2" height="3" fill="#D9D9D9"/>
<path d="M58.402 12.22V25H54.892V19.996H50.608V25H47.098V12.22H50.608V16.936H54.892V12.22H58.402ZM60.364 25V15.532H63.784V25H60.364ZM60.364 14.74V11.86H63.784V14.74H60.364ZM71.9404 18.448C71.2804 18.448 70.6804 18.52 70.1404 18.664C69.6004 18.808 69.1984 19.048 68.9344 19.384V25H65.5144V15.532H68.6464V17.332C68.9824 16.696 69.4024 16.21 69.9064 15.874C70.4104 15.526 70.9444 15.352 71.5084 15.352C71.6404 15.352 71.7304 15.352 71.7784 15.352C71.8384 15.352 71.8924 15.358 71.9404 15.37V18.448ZM77.6647 25.18C76.8367 25.18 76.0987 25.054 75.4507 24.802C74.8027 24.538 74.2567 24.184 73.8127 23.74C73.3807 23.296 73.0507 22.786 72.8227 22.21C72.5947 21.634 72.4807 21.028 72.4807 20.392C72.4807 19.48 72.6787 18.646 73.0747 17.89C73.4707 17.122 74.0527 16.51 74.8207 16.054C75.5887 15.586 76.5367 15.352 77.6647 15.352C78.7927 15.352 79.7407 15.58 80.5087 16.036C81.2767 16.492 81.8587 17.092 82.2547 17.836C82.6507 18.58 82.8487 19.39 82.8487 20.266C82.8487 20.446 82.8367 20.632 82.8127 20.824C82.8007 21.004 82.7827 21.166 82.7587 21.31H76.1167C76.1407 21.646 76.2307 21.922 76.3867 22.138C76.5547 22.342 76.7587 22.492 76.9987 22.588C77.2507 22.684 77.5087 22.732 77.7727 22.732C78.1447 22.732 78.4927 22.648 78.8167 22.48C79.1527 22.312 79.3747 22.078 79.4827 21.778L82.3807 22.606C82.1287 23.11 81.7747 23.554 81.3187 23.938C80.8747 24.322 80.3467 24.628 79.7347 24.856C79.1227 25.072 78.4327 25.18 77.6647 25.18ZM76.0447 19.258H79.1767C79.1407 18.946 79.0507 18.682 78.9067 18.466C78.7747 18.25 78.5947 18.082 78.3667 17.962C78.1507 17.842 77.8987 17.782 77.6107 17.782C77.3227 17.782 77.0647 17.842 76.8367 17.962C76.6207 18.082 76.4407 18.25 76.2967 18.466C76.1647 18.682 76.0807 18.946 76.0447 19.258ZM83.4494 22.138C83.4494 21.502 83.6234 20.944 83.9714 20.464C84.3194 19.972 84.7994 19.588 85.4114 19.312C86.0354 19.036 86.7434 18.898 87.5354 18.898C87.9074 18.898 88.2554 18.928 88.5794 18.988C88.9154 19.048 89.2034 19.138 89.4434 19.258V18.97C89.4434 18.526 89.3114 18.196 89.0474 17.98C88.7954 17.764 88.3814 17.656 87.8054 17.656C87.2774 17.656 86.7794 17.746 86.3114 17.926C85.8554 18.094 85.3754 18.346 84.8714 18.682L83.8814 16.558C84.5174 16.15 85.1834 15.85 85.8794 15.658C86.5874 15.454 87.3434 15.352 88.1474 15.352C89.6474 15.352 90.8054 15.694 91.6214 16.378C92.4494 17.05 92.8634 18.052 92.8634 19.384V21.22C92.8634 21.544 92.9114 21.772 93.0074 21.904C93.1034 22.024 93.2714 22.096 93.5114 22.12V25C93.2354 25.06 92.9714 25.102 92.7194 25.126C92.4794 25.162 92.2634 25.18 92.0714 25.18C91.4594 25.18 90.9914 25.072 90.6674 24.856C90.3554 24.628 90.1514 24.298 90.0554 23.866L89.9834 23.524C89.5634 24.064 89.0774 24.478 88.5254 24.766C87.9734 25.042 87.3854 25.18 86.7614 25.18C86.1374 25.18 85.5734 25.048 85.0694 24.784C84.5654 24.52 84.1694 24.16 83.8814 23.704C83.5934 23.236 83.4494 22.714 83.4494 22.138ZM88.9934 22.372C89.1254 22.276 89.2334 22.174 89.3174 22.066C89.4014 21.946 89.4434 21.826 89.4434 21.706V21.004C89.2514 20.932 89.0294 20.872 88.7774 20.824C88.5374 20.776 88.3214 20.752 88.1294 20.752C87.7214 20.752 87.3734 20.854 87.0854 21.058C86.8094 21.262 86.6714 21.52 86.6714 21.832C86.6714 22 86.7194 22.156 86.8154 22.3C86.9114 22.432 87.0434 22.54 87.2114 22.624C87.3794 22.696 87.5714 22.732 87.7874 22.732C87.9914 22.732 88.2014 22.702 88.4174 22.642C88.6454 22.57 88.8374 22.48 88.9934 22.372ZM101.173 18.448C100.513 18.448 99.9128 18.52 99.3728 18.664C98.8328 18.808 98.4308 19.048 98.1668 19.384V25H94.7468V15.532H97.8788V17.332C98.2148 16.696 98.6348 16.21 99.1388 15.874C99.6428 15.526 100.177 15.352 100.741 15.352C100.873 15.352 100.963 15.352 101.011 15.352C101.071 15.352 101.125 15.358 101.173 15.37V18.448ZM106.915 25.18C106.075 25.18 105.331 25.048 104.683 24.784C104.047 24.52 103.507 24.16 103.063 23.704C102.619 23.236 102.283 22.708 102.055 22.12C101.827 21.532 101.713 20.914 101.713 20.266C101.713 19.402 101.911 18.598 102.307 17.854C102.715 17.098 103.303 16.492 104.071 16.036C104.851 15.58 105.799 15.352 106.915 15.352C108.055 15.352 109.015 15.592 109.795 16.072C110.575 16.552 111.157 17.17 111.541 17.926L108.211 18.934C108.055 18.706 107.863 18.532 107.635 18.412C107.419 18.292 107.173 18.232 106.897 18.232C106.585 18.232 106.303 18.316 106.051 18.484C105.799 18.64 105.595 18.868 105.439 19.168C105.295 19.468 105.223 19.834 105.223 20.266C105.223 20.686 105.295 21.052 105.439 21.364C105.595 21.664 105.799 21.898 106.051 22.066C106.303 22.222 106.585 22.3 106.897 22.3C107.089 22.3 107.263 22.276 107.419 22.228C107.575 22.168 107.719 22.084 107.851 21.976C107.995 21.868 108.115 21.742 108.211 21.598L111.541 22.606C111.289 23.11 110.941 23.554 110.497 23.938C110.065 24.322 109.549 24.628 108.949 24.856C108.361 25.072 107.683 25.18 106.915 25.18ZM122.146 25H118.726V19.672C118.726 19.204 118.618 18.868 118.402 18.664C118.198 18.448 117.94 18.34 117.628 18.34C117.484 18.34 117.304 18.394 117.088 18.502C116.884 18.61 116.686 18.766 116.494 18.97C116.302 19.174 116.152 19.414 116.044 19.69V25H112.624V11.86H116.044V16.936C116.38 16.42 116.818 16.03 117.358 15.766C117.91 15.49 118.516 15.352 119.176 15.352C119.848 15.352 120.382 15.466 120.778 15.694C121.174 15.91 121.468 16.192 121.66 16.54C121.852 16.888 121.978 17.26 122.038 17.656C122.11 18.052 122.146 18.424 122.146 18.772V25ZM123.591 25.954C123.867 26.05 124.119 26.122 124.347 26.17C124.587 26.23 124.803 26.26 124.995 26.26C125.247 26.26 125.457 26.212 125.625 26.116C125.793 26.032 125.925 25.894 126.021 25.702C126.117 25.51 126.177 25.276 126.201 25L122.763 15.532H126.273L128.073 21.49L129.531 15.532H132.717L129.513 26.134C129.333 26.746 129.039 27.28 128.631 27.736C128.223 28.204 127.737 28.564 127.173 28.816C126.609 29.08 126.003 29.212 125.355 29.212C125.055 29.212 124.755 29.182 124.455 29.122C124.167 29.074 123.879 28.99 123.591 28.87V25.954ZM132.734 25V21.688H135.506V25H132.734ZM136.746 22.138C136.746 21.502 136.92 20.944 137.268 20.464C137.616 19.972 138.096 19.588 138.708 19.312C139.332 19.036 140.04 18.898 140.832 18.898C141.204 18.898 141.552 18.928 141.876 18.988C142.212 19.048 142.5 19.138 142.74 19.258V18.97C142.74 18.526 142.608 18.196 142.344 17.98C142.092 17.764 141.678 17.656 141.102 17.656C140.574 17.656 140.076 17.746 139.608 17.926C139.152 18.094 138.672 18.346 138.168 18.682L137.178 16.558C137.814 16.15 138.48 15.85 139.176 15.658C139.884 15.454 140.64 15.352 141.444 15.352C142.944 15.352 144.102 15.694 144.918 16.378C145.746 17.05 146.16 18.052 146.16 19.384V21.22C146.16 21.544 146.208 21.772 146.304 21.904C146.4 22.024 146.568 22.096 146.808 22.12V25C146.532 25.06 146.268 25.102 146.016 25.126C145.776 25.162 145.56 25.18 145.368 25.18C144.756 25.18 144.288 25.072 143.964 24.856C143.652 24.628 143.448 24.298 143.352 23.866L143.28 23.524C142.86 24.064 142.374 24.478 141.822 24.766C141.27 25.042 140.682 25.18 140.058 25.18C139.434 25.18 138.87 25.048 138.366 24.784C137.862 24.52 137.466 24.16 137.178 23.704C136.89 23.236 136.746 22.714 136.746 22.138ZM142.29 22.372C142.422 22.276 142.53 22.174 142.614 22.066C142.698 21.946 142.74 21.826 142.74 21.706V21.004C142.548 20.932 142.326 20.872 142.074 20.824C141.834 20.776 141.618 20.752 141.426 20.752C141.018 20.752 140.67 20.854 140.382 21.058C140.106 21.262 139.968 21.52 139.968 21.832C139.968 22 140.016 22.156 140.112 22.3C140.208 22.432 140.34 22.54 140.508 22.624C140.676 22.696 140.868 22.732 141.084 22.732C141.288 22.732 141.498 22.702 141.714 22.642C141.942 22.57 142.134 22.48 142.29 22.372ZM148.044 25V15.532H151.464V25H148.044ZM148.044 14.74V11.86H151.464V14.74H148.044Z" fill="black"/>
<defs>
<linearGradient id="paint0_linear_92_4602" x1="-4.29728e-09" y1="18.7954" x2="38.9989" y2="18.1391" gradientUnits="userSpaceOnUse">
<stop stop-color="#8539EA"/>
<stop offset="1" stop-color="#2961EB"/>
</linearGradient>
<linearGradient id="paint1_linear_92_4602" x1="1.90244" y1="31.1342" x2="34.0085" y2="28.7624" gradientUnits="userSpaceOnUse">
<stop stop-color="#01207E"/>
<stop offset="1" stop-color="#2862EB"/>
</linearGradient>
</defs>
</svg>
